<?xml version="1.0" encoding="UTF-8" standalone="no"?>
<!-- GNU Emacs Banner Copyright (C) 2025 Elijah Gabe B. P.

This file is free software: you can redistribute it and/or modify
it under the terms of the GNU General Public License as published by
the Free Software Foundation, either version 3 of the License, or
(at your option) any later version.

This file is distributed in the hope that it will be useful,
but WITHOUT ANY WARRANTY; without even the implied warranty of
MERCHANTABILITY or FITNESS FOR A PARTICULAR PURPOSE.  See the
GNU General Public License for more details.

You should have received a copy of the GNU General Public License
along with this file.  If not, see <https://www.gnu.org/licenses>
-->

<!-- Created with Inkscape (http://www.inkscape.org/)
===
The fira sans font is required to properly display the text.
You can get it here: https://fonts.google.com/specimen/Fira+Sans
===
-->

<svg
   width="1028"
   height="128"
   viewBox="0 0 271.99163 33.866662"
   version="1.1"
   id="svg1"
   xml:space="preserve"
   inkscape:version="1.4 (e7c3feb100, 2024-10-09)"
   sodipodi:docname="banner1_alt.svg"
   inkscape:export-filename="exported banners/banner1_alt.png"
   inkscape:export-xdpi="96"
   inkscape:export-ydpi="96"
   xmlns:inkscape="http://www.inkscape.org/namespaces/inkscape"
   xmlns:sodipodi="http://sodipodi.sourceforge.net/DTD/sodipodi-0.dtd"
   xmlns:xlink="http://www.w3.org/1999/xlink"
   xmlns="http://www.w3.org/2000/svg"
   xmlns:svg="http://www.w3.org/2000/svg"
   xmlns:rdf="http://www.w3.org/1999/02/22-rdf-syntax-ns#"
   xmlns:cc="http://creativecommons.org/ns#"><sodipodi:namedview
     id="namedview1"
     pagecolor="#505050"
     bordercolor="#ffffff"
     borderopacity="1"
     inkscape:showpageshadow="0"
     inkscape:pageopacity="0"
     inkscape:pagecheckerboard="1"
     inkscape:deskcolor="#505050"
     inkscape:document-units="mm"
     inkscape:zoom="1.5697771"
     inkscape:cx="527.46342"
     inkscape:cy="-3.8221987"
     inkscape:window-width="1920"
     inkscape:window-height="919"
     inkscape:window-x="0"
     inkscape:window-y="0"
     inkscape:window-maximized="1"
     inkscape:current-layer="svg1" /><defs
     id="defs1"><pattern
       inkscape:collect="always"
       xlink:href="#stripes-grid"
       preserveAspectRatio="xMidYMid"
       id="pattern60"
       patternTransform="matrix(0.2501711,0,0,0.25118698,-59.568288,-252.28605)"
       x="0"
       y="0" /><pattern
       patternUnits="userSpaceOnUse"
       width="3"
       height="10"
       patternTransform="scale(2)"
       preserveAspectRatio="xMidYMid"
       id="stripes-grid"
       style="fill:#572787"
       x="0"
       y="0"
       inkscape:label="Rejilla de rayas"
       inkscape:collect="always"
       inkscape:isstock="true"><rect
         style="stroke:none"
         x="0"
         y="0"
         width="2"
         height="10"
         id="rect134-4" /></pattern><clipPath
       clipPathUnits="userSpaceOnUse"
       id="clipPath57"><path
         id="path57"
         style="stroke-width:0.1;stroke-linecap:square;paint-order:markers fill stroke;stop-color:#000000"
         d="m -880.82767,-187.29769 h 1640.84 v 73.28155 h -1640.84 z" /></clipPath><clipPath
       clipPathUnits="userSpaceOnUse"
       id="clipPath55"><path
         id="path55"
         style="stroke-width:0.1;stroke-linecap:square;paint-order:markers fill stroke;stop-color:#000000"
         d="m -880.82767,-187.29769 h 1640.84 v 73.28155 h -1640.84 z" /></clipPath><clipPath
       clipPathUnits="userSpaceOnUse"
       id="clipPath52"><path
         id="path52"
         style="stroke-width:0.1;stroke-linecap:square;paint-order:markers fill stroke;stop-color:#000000"
         d="m -880.82767,-187.29769 h 1640.84 v 73.28155 h -1640.84 z" /></clipPath><linearGradient
       id="linearGradient31"
       inkscape:collect="always"><stop
         style="stop-color:#8381c5;stop-opacity:1;"
         offset="0"
         id="stop31" /><stop
         style="stop-color:#7e55b3;stop-opacity:0.99607843;"
         offset="0.5"
         id="stop33" /><stop
         style="stop-color:#a52ecb;stop-opacity:0.99215686;"
         offset="1"
         id="stop32" /></linearGradient><linearGradient
       id="linearGradient27"
       inkscape:collect="always"><stop
         style="stop-color:#8381c5;stop-opacity:1;"
         offset="0"
         id="stop27" /><stop
         style="stop-color:#7e55b3;stop-opacity:0.99607843;"
         offset="0.5"
         id="stop29" /></linearGradient><rect
       x="1773.5857"
       y="293.72913"
       width="58.297382"
       height="85.203865"
       id="rect21" /><rect
       x="1222.0028"
       y="594.18488"
       width="2.2422071"
       height="13.453242"
       id="rect20" /><linearGradient
       id="swatch14"
       inkscape:swatch="solid"><stop
         style="stop-color:#683fbc;stop-opacity:1;"
         offset="0"
         id="stop14" /></linearGradient><rect
       x="272.34009"
       y="544.68018"
       width="543.03058"
       height="70.225677"
       id="rect2" /><linearGradient
       id="linearGradient1"><stop
         style="stop-color:#8381c5;stop-opacity:1;"
         offset="0"
         id="stop2" /><stop
         style="stop-color:#943fc1;stop-opacity:0.99215686;"
         offset="1"
         id="stop1" /></linearGradient><rect
       x="515.21393"
       y="591.28583"
       width="82.189529"
       height="20.746872"
       id="rect1" /><linearGradient
       id="swatch7"><stop
         style="stop-color:#000000;stop-opacity:1;"
         offset="0"
         id="stop7" /></linearGradient><linearGradient
       id="linearGradient4292"><stop
         id="stop4294"
         offset="0"
         style="stop-color:#411f5d;stop-opacity:1" /><stop
         id="stop4296"
         offset="1"
         style="stop-color:#5b2a85;stop-opacity:1" /></linearGradient><linearGradient
       id="linearGradient4284"><stop
         offset="0"
         style="stop-color:#8381c5;stop-opacity:1"
         id="stop4286" /><stop
         id="stop4290"
         style="stop-color:#7e55b3;stop-opacity:0.99607843"
         offset="0.56639391" /><stop
         offset="1"
         style="stop-color:#a52ecb;stop-opacity:0.99215686"
         id="stop4288" /></linearGradient><linearGradient
       y2="300.73987"
       x2="236.61363"
       y1="-161.8512"
       x1="-122.20192"
       spreadMethod="pad"
       gradientTransform="matrix(0.08192422,0,0,0.07764193,783.95412,22.537094)"
       gradientUnits="userSpaceOnUse"
       id="linearGradient4245"
       xlink:href="#linearGradient4284" /><linearGradient
       y2="66.018341"
       x2="173.94518"
       y1="396.6066"
       x1="447.80933"
       gradientTransform="matrix(0.09251715,0,0,0.09251715,761.17539,-0.69005595)"
       gradientUnits="userSpaceOnUse"
       id="linearGradient4247"
       xlink:href="#linearGradient4292" /><linearGradient
       xlink:href="#linearGradient1"
       id="linearGradient2"
       x1="65.512505"
       y1="119.42089"
       x2="129.27672"
       y2="119.42089"
       gradientUnits="userSpaceOnUse" /><rect
       x="272.34009"
       y="544.68018"
       width="51.533951"
       height="22.193455"
       id="rect2-7" /><rect
       x="272.34009"
       y="544.68018"
       width="190.33711"
       height="80.498306"
       id="rect2-8" /><rect
       x="515.21393"
       y="591.28583"
       width="82.189529"
       height="20.746872"
       id="rect1-2" /><linearGradient
       y2="300.73987"
       x2="236.61363"
       y1="-161.8512"
       x1="-122.20192"
       spreadMethod="pad"
       gradientTransform="matrix(0.08192422,0,0,0.07764193,223.12164,515.26127)"
       gradientUnits="userSpaceOnUse"
       id="linearGradient4245-2"
       xlink:href="#linearGradient4284" /><linearGradient
       y2="66.018341"
       x2="173.94518"
       y1="396.6066"
       x1="447.80933"
       gradientTransform="matrix(0.09251715,0,0,0.09251715,200.34291,492.03412)"
       gradientUnits="userSpaceOnUse"
       id="linearGradient4247-2"
       xlink:href="#linearGradient4292" /><rect
       x="272.34009"
       y="544.68018"
       width="51.533951"
       height="22.193455"
       id="rect2-7-8" /><rect
       x="272.34009"
       y="544.68018"
       width="561.35876"
       height="80.000717"
       id="rect2-4" /><linearGradient
       inkscape:collect="always"
       xlink:href="#linearGradient27"
       id="linearGradient28"
       x1="484.3562"
       y1="578.19971"
       x2="605.6347"
       y2="578.19971"
       gradientUnits="userSpaceOnUse" /><linearGradient
       inkscape:collect="always"
       xlink:href="#linearGradient31"
       id="linearGradient32"
       x1="484.3562"
       y1="578.19971"
       x2="605.6347"
       y2="578.19971"
       gradientUnits="userSpaceOnUse" /><rect
       x="272.34009"
       y="544.68018"
       width="561.35876"
       height="80.000717"
       id="rect2-4-1" /><rect
       x="272.34009"
       y="544.68018"
       width="561.35876"
       height="80.000717"
       id="rect2-4-3" /><pattern
       inkscape:collect="always"
       xlink:href="#stripes-grid-4"
       preserveAspectRatio="xMidYMid"
       id="pattern60-0"
       patternTransform="matrix(0.2501711,0,0,0.25118698,-252.97421,-74.330341)"
       x="0"
       y="0" /><pattern
       patternUnits="userSpaceOnUse"
       width="3"
       height="10"
       patternTransform="scale(2)"
       preserveAspectRatio="xMidYMid"
       id="stripes-grid-4"
       style="fill:#322467"
       x="0"
       y="0"
       inkscape:label="Rejilla de rayas"
       inkscape:collect="always"
       inkscape:isstock="true"><rect
         style="stroke:none"
         x="0"
         y="0"
         width="2"
         height="10"
         id="rect134-4-8" /></pattern><pattern
       inkscape:collect="always"
       xlink:href="#stripes-grid-4-2"
       preserveAspectRatio="xMidYMid"
       id="pattern60-0-2"
       patternTransform="matrix(0.2501711,0,0,0.25118698,-161.06903,-161.09856)"
       x="0"
       y="0" /><pattern
       patternUnits="userSpaceOnUse"
       width="3"
       height="10"
       patternTransform="scale(2)"
       preserveAspectRatio="xMidYMid"
       id="stripes-grid-4-2"
       style="fill:#482a83"
       x="0"
       y="0"
       inkscape:label="Rejilla de rayas"
       inkscape:collect="always"
       inkscape:isstock="true"><rect
         style="stroke:none"
         x="0"
         y="0"
         width="2"
         height="10"
         id="rect134-4-8-6" /></pattern><linearGradient
       inkscape:collect="always"
       xlink:href="#linearGradient23"
       id="linearGradient24"
       x1="470.66956"
       y1="578.61969"
       x2="637.58948"
       y2="578.61969"
       gradientUnits="userSpaceOnUse" /><linearGradient
       id="linearGradient23"
       inkscape:collect="always"><stop
         style="stop-color:#723dc2;stop-opacity:1;"
         offset="0"
         id="stop23" /><stop
         style="stop-color:#7e55b3;stop-opacity:0.99607843;"
         offset="0.5"
         id="stop44" /></linearGradient><rect
       x="272.34009"
       y="544.68018"
       width="561.35876"
       height="80.000717"
       id="rect2-4-4" /><linearGradient
       inkscape:collect="always"
       xlink:href="#linearGradient18"
       id="linearGradient19"
       x1="-351.1127"
       y1="-109.83356"
       x2="727.72791"
       y2="11.118494"
       gradientUnits="userSpaceOnUse"
       gradientTransform="matrix(0.24960692,0,0,0.24960692,89.507658,32.379848)" /><linearGradient
       id="linearGradient18"
       inkscape:collect="always"><stop
         style="stop-color:#2b295d;stop-opacity:1;"
         offset="0"
         id="stop18" /><stop
         style="stop-color:#472a83;stop-opacity:0.99215686;"
         offset="0.5"
         id="stop20" /><stop
         style="stop-color:#71238d;stop-opacity:0.99215686;"
         offset="1"
         id="stop19" /></linearGradient><rect
       x="272.34009"
       y="544.68018"
       width="543.03058"
       height="70.225677"
       id="rect2-75" /></defs><rect
     style="fill:url(#linearGradient19);fill-opacity:1;stroke-width:0.264583"
     id="rect3"
     height="33.866665"
     x="0"
     y="0"
     width="271.99167" /><rect
     style="fill:url(#pattern60-0-2);fill-opacity:1;stroke:none;stroke-width:0.270697;stroke-linejoin:round;stroke-dasharray:none;stroke-opacity:1;paint-order:markers stroke fill"
     id="rect47-6-7-6"
     width="65.794464"
     height="141.41302"
     x="73.107132"
     y="-167.42007"
     transform="matrix(0.66722131,0.74485953,-0.71747173,0.69658762,0,0)" /><g
     id="emacs_logo"
     transform="matrix(0.47700761,0,0,0.44992846,-262.26756,5.7033677)"
     style="display:inline"><path
       d="m 806.66324,23.157084 c 0,12.19324 -9.78462,22.07781 -21.85454,22.07781 -12.06993,0 -21.85455,-9.88457 -21.85455,-22.07781 0,-12.19324 9.78462,-22.07781 21.85455,-22.07781 12.06992,0 21.85454,9.88457 21.85454,22.07781 z"
       id="path4235"
       style="display:inline;opacity:1;fill:url(#linearGradient4245);fill-opacity:1;stroke:url(#linearGradient4247);stroke-width:1.25045;stroke-miterlimit:4;stroke-dasharray:none;stroke-opacity:1"
       sodipodi:nodetypes="sssss" /><path
       d="m 777.29719,38.66483 c 0,0 1.85048,0.130907 4.23105,-0.0789 0.96407,-0.08497 4.62438,-0.444495 7.36096,-1.044646 0,0 3.33655,-0.714065 5.12157,-1.371877 1.86774,-0.688298 2.88409,-1.272472 3.34156,-2.100227 -0.0199,-0.169601 0.14085,-0.771036 -0.72047,-1.132302 -2.20206,-0.923624 -4.75594,-0.75656 -9.80942,-0.863704 -5.60411,-0.192554 -7.46837,-1.130598 -8.46146,-1.886099 -0.9523,-0.766424 -0.47344,-2.8868 3.60696,-4.75453 2.05541,-0.994592 10.11286,-2.830029 10.11286,-2.830029 -2.71361,-1.341305 -7.77362,-3.699275 -8.81376,-4.208459 -0.91226,-0.446577 -2.37216,-1.118996 -2.68861,-1.932533 -0.35879,-0.781021 0.84734,-1.453805 1.52108,-1.646471 2.16982,-0.625877 5.23295,-1.014879 8.02076,-1.058552 1.4013,-0.02195 1.62875,-0.112112 1.62875,-0.112112 1.93353,-0.320734 3.20639,-1.643601 2.67606,-3.738634 -0.47609,-2.1384801 -2.98703,-3.3950292 -5.37317,-2.9600254 -2.24702,0.4096462 -7.66292,1.982819 -7.66292,1.982819 6.69446,-0.05794 7.81493,0.053792 8.31535,0.7534464 0.29553,0.413195 -0.13429,0.979751 -1.91967,1.271343 -1.94372,0.317452 -5.98418,0.699749 -5.98418,0.699749 -3.87608,0.230193 -6.60639,0.2456 -7.42528,1.979357 -0.53499,1.132683 0.57051,2.134059 1.05504,2.760871 2.04757,2.277099 5.00515,3.5052 6.90889,4.409581 0.7163,0.340278 2.81799,0.982882 2.81799,0.982882 -6.17608,-0.339689 -10.63127,1.556766 -13.24466,3.740271 -2.95582,2.733994 -1.64825,5.992831 4.40741,7.999387 3.57673,1.18515 5.35055,1.742527 10.68577,1.262093 3.1425,-0.169381 3.63788,-0.06858 3.66922,0.189273 0.0441,0.36304 -3.49042,1.264843 -4.45538,1.543182 -2.45487,0.708099 -8.89009,2.13791 -8.9223,2.144846 z"
       id="path4237"
       style="display:inline;fill:#ffffff;fill-opacity:1;fill-rule:evenodd;stroke:#000000;stroke-width:0;stroke-linecap:butt;stroke-linejoin:miter;stroke-miterlimit:4;stroke-dasharray:none;stroke-opacity:1" /></g><text
     xml:space="preserve"
     transform="matrix(0.14498842,0,0,0.1367576,52.022473,-61.755468)"
     id="text2"
     style="font-style:normal;font-variant:normal;font-weight:300;font-stretch:normal;font-size:52.3148px;font-family:'Fira Sans';-inkscape-font-specification:'Fira Sans Light';text-align:center;white-space:pre;shape-inside:url(#rect2);display:inline;fill:#eee9d9;fill-opacity:1;fill-rule:evenodd;stroke:none;stroke-width:1.02982;stroke-linejoin:miter;stroke-dasharray:none;stroke-opacity:1;paint-order:markers stroke fill"><tspan
       x="493.03162"
       y="591.98099"
       id="tspan1">GNU</tspan></text><g
     id="g44"
     transform="matrix(0.30043455,0,0,0.30043455,58.793673,1.9725667)"
     style="display:inline"><text
       xml:space="preserve"
       transform="matrix(0.48552267,0,0,0.48552267,54.492943,-231.27996)"
       id="text2-4"
       style="font-style:italic;font-variant:normal;font-weight:500;font-stretch:normal;font-size:60px;font-family:'Fira Sans';-inkscape-font-specification:'Fira Sans Medium Italic';text-align:center;white-space:pre;shape-inside:url(#rect2-4-4);display:inline;mix-blend-mode:normal;fill:url(#linearGradient24);fill-opacity:1;fill-rule:evenodd;stroke:none;stroke-width:7.20873;stroke-linejoin:miter;stroke-dasharray:none;paint-order:markers stroke fill"><tspan
         x="482.5495"
         y="598.92969"
         id="tspan2">macs</tspan></text><path
       d="m 269.52867,66.782876 c 0,0 1.67804,0.14134 3.90649,-0.08519 0.90245,-0.09176 4.33563,-0.479925 6.96347,-1.127908 0,0 3.20071,-0.77097 4.96391,-1.481207 1.84488,-0.743159 2.88745,-1.373898 3.4608,-2.267618 0.0129,-0.183122 0.27162,-0.832492 -0.45402,-1.222546 -1.85532,-0.997242 -4.23528,-0.816857 -8.86395,-0.932546 -5.11943,-0.207886 -6.66136,-1.220698 -7.43559,-2.036412 -0.73472,-0.827513 0.0966,-3.116879 4.19415,-5.133466 2.07398,-1.073868 9.82388,-3.055583 9.82388,-3.055583 -2.24888,-1.448211 -6.4687,-3.994112 -7.33163,-4.543873 -0.75682,-0.482174 -1.97578,-1.208185 -2.11691,-2.086564 -0.18603,-0.843267 1.04737,-1.569667 1.70261,-1.777694 2.11126,-0.675752 5.00056,-1.095766 7.57298,-1.142917 1.293,-0.02366 1.51884,-0.121046 1.51884,-0.121046 1.83767,-0.346292 3.25232,-1.774594 3.15064,-4.036597 -0.0438,-2.308928 -2.12184,-3.665614 -4.39691,-3.195945 -2.14241,0.442299 -7.41415,2.140852 -7.41415,2.140852 6.16853,-0.06251 7.17861,0.05808 7.50997,0.813499 0.19569,0.446121 -0.30419,1.057836 -2.00014,1.372665 -1.84642,0.342752 -5.63348,0.755521 -5.63348,0.755521 -3.60781,0.248535 -6.12213,0.265174 -7.19494,2.137105 -0.70086,1.222964 0.13147,2.304144 0.46162,2.980921 1.46375,2.458574 3.95792,3.784563 5.54236,4.761024 0.59617,0.367389 2.41097,1.061214 2.41097,1.061214 -5.61843,-0.366763 -10.06605,1.680834 -12.87241,4.038371 -3.22281,2.951889 -2.62068,6.470457 2.57975,8.636939 3.07161,1.279607 4.6005,1.8814 9.59662,1.36268 2.92183,-0.182883 3.35894,-0.07408 3.34022,0.204348 -0.0264,0.391974 -3.44374,1.365647 -4.38267,1.66617 -2.38861,0.764535 -8.57156,2.308301 -8.60247,2.315795 z"
       id="path4237-6"
       style="display:inline;fill:#723dc2;fill-opacity:1;fill-rule:evenodd;stroke:#000000;stroke-width:0;stroke-linecap:butt;stroke-linejoin:miter;stroke-miterlimit:4;stroke-dasharray:none;stroke-opacity:1" /></g><rect
     style="fill:url(#pattern60);fill-opacity:1;stroke:none;stroke-width:0.270697;stroke-linejoin:round;stroke-dasharray:none;stroke-opacity:1;paint-order:markers stroke fill"
     id="rect47-6"
     width="29.549631"
     height="71.807625"
     x="189.30055"
     y="-211.24062"
     transform="matrix(0.66722132,0.74485952,-0.71747172,0.69658763,0,0)" /><rect
     style="fill:url(#pattern60-0);fill-opacity:1;stroke:none;stroke-width:0.270697;stroke-linejoin:round;stroke-dasharray:none;stroke-opacity:1;paint-order:markers stroke fill"
     id="rect47-6-7"
     width="29.549631"
     height="71.807625"
     x="-4.1053796"
     y="-33.284901"
     transform="matrix(0.66722132,0.74485952,-0.71747172,0.69658763,0,0)" /><text
     xml:space="preserve"
     transform="matrix(0.14498842,0,0,0.1367576,63.274324,-52.41426)"
     id="text2-5"
     style="font-style:normal;font-variant:normal;font-weight:300;font-stretch:normal;font-size:20.0424px;font-family:'Fira Sans';-inkscape-font-specification:'Fira Sans Light';text-align:center;white-space:pre;shape-inside:url(#rect2-75);display:inline;fill:#eee9d9;fill-opacity:1;fill-rule:evenodd;stroke:none;stroke-width:1.02982;stroke-linejoin:miter;stroke-dasharray:none;stroke-opacity:1;paint-order:markers stroke fill"><tspan
       x="456.90151"
       y="562.80136"
       id="tspan4"><tspan
         style="font-style:italic;-inkscape-font-specification:'Fira Sans Light Italic'"
         id="tspan3">The long-live editor</tspan></tspan></text><metadata
     id="metadata1"><rdf:RDF><cc:Work
         rdf:about=""><cc:license
           rdf:resource="https://www.gnu.org/licenses/gpl-3.0.html#license-text" /></cc:Work></rdf:RDF></metadata></svg>
