<?xml version="1.0" encoding="UTF-8" standalone="no"?>
<!-- Created with Inkscape (http://www.inkscape.org/) -->

<svg
   width="1028"
   height="127.99999"
   viewBox="0 0 271.99167 33.866663"
   version="1.1"
   id="svg1"
   xml:space="preserve"
   inkscape:version="1.4 (e7c3feb100, 2024-10-09)"
   sodipodi:docname="banner3.svg"
   xmlns:inkscape="http://www.inkscape.org/namespaces/inkscape"
   xmlns:sodipodi="http://sodipodi.sourceforge.net/DTD/sodipodi-0.dtd"
   xmlns:xlink="http://www.w3.org/1999/xlink"
   xmlns="http://www.w3.org/2000/svg"
   xmlns:svg="http://www.w3.org/2000/svg"><sodipodi:namedview
     id="namedview1"
     pagecolor="#505050"
     bordercolor="#ffffff"
     borderopacity="1"
     inkscape:showpageshadow="0"
     inkscape:pageopacity="0"
     inkscape:pagecheckerboard="1"
     inkscape:deskcolor="#505050"
     inkscape:document-units="mm"
     inkscape:zoom="1"
     inkscape:cx="543"
     inkscape:cy="28"
     inkscape:window-width="1920"
     inkscape:window-height="919"
     inkscape:window-x="0"
     inkscape:window-y="0"
     inkscape:window-maximized="1"
     inkscape:current-layer="svg1" /><defs
     id="defs1"><linearGradient
       id="linearGradient66"
       inkscape:collect="always"><stop
         style="stop-color:#7762a4;stop-opacity:1;"
         offset="0"
         id="stop66" /><stop
         style="stop-color:#4b3bcb;stop-opacity:1;"
         offset="1"
         id="stop67" /></linearGradient><clipPath
       clipPathUnits="userSpaceOnUse"
       id="clipPath57"><path
         id="path57"
         style="stroke-width:0.1;stroke-linecap:square;paint-order:markers fill stroke;stop-color:#000000"
         d="m -880.82767,-187.29769 h 1640.84 v 73.28155 h -1640.84 z" /></clipPath><clipPath
       clipPathUnits="userSpaceOnUse"
       id="clipPath55"><path
         id="path55"
         style="stroke-width:0.1;stroke-linecap:square;paint-order:markers fill stroke;stop-color:#000000"
         d="m -880.82767,-187.29769 h 1640.84 v 73.28155 h -1640.84 z" /></clipPath><clipPath
       clipPathUnits="userSpaceOnUse"
       id="clipPath52"><path
         id="path52"
         style="stroke-width:0.1;stroke-linecap:square;paint-order:markers fill stroke;stop-color:#000000"
         d="m -880.82767,-187.29769 h 1640.84 v 73.28155 h -1640.84 z" /></clipPath><linearGradient
       id="linearGradient27"
       inkscape:collect="always"><stop
         style="stop-color:#8381c5;stop-opacity:1;"
         offset="0"
         id="stop27" /><stop
         style="stop-color:#7e55b3;stop-opacity:0.99607843;"
         offset="0.5"
         id="stop29" /></linearGradient><rect
       x="1773.5857"
       y="293.72913"
       width="58.297382"
       height="85.203865"
       id="rect21" /><rect
       x="1222.0028"
       y="594.18488"
       width="2.2422071"
       height="13.453242"
       id="rect20" /><linearGradient
       id="swatch14"
       inkscape:swatch="solid"><stop
         style="stop-color:#683fbc;stop-opacity:1;"
         offset="0"
         id="stop14" /></linearGradient><rect
       x="272.34009"
       y="544.68018"
       width="543.03058"
       height="70.225677"
       id="rect2" /><linearGradient
       id="linearGradient1"><stop
         style="stop-color:#8381c5;stop-opacity:1;"
         offset="0"
         id="stop2" /><stop
         style="stop-color:#943fc1;stop-opacity:0.99215686;"
         offset="1"
         id="stop1" /></linearGradient><rect
       x="515.21393"
       y="591.28583"
       width="82.189529"
       height="20.746872"
       id="rect1" /><linearGradient
       id="swatch7"><stop
         style="stop-color:#000000;stop-opacity:1;"
         offset="0"
         id="stop7" /></linearGradient><linearGradient
       id="linearGradient4292"><stop
         id="stop4294"
         offset="0"
         style="stop-color:#411f5d;stop-opacity:1" /><stop
         id="stop4296"
         offset="1"
         style="stop-color:#5b2a85;stop-opacity:1" /></linearGradient><linearGradient
       id="linearGradient4284"><stop
         offset="0"
         style="stop-color:#8381c5;stop-opacity:1"
         id="stop4286" /><stop
         id="stop4290"
         style="stop-color:#7e55b3;stop-opacity:0.99607843"
         offset="0.56639391" /><stop
         offset="1"
         style="stop-color:#a52ecb;stop-opacity:0.99215686"
         id="stop4288" /></linearGradient><linearGradient
       y2="300.73987"
       x2="236.61363"
       y1="-161.8512"
       x1="-122.20192"
       spreadMethod="pad"
       gradientTransform="matrix(0.08192422,0,0,0.07764193,783.95412,22.537094)"
       gradientUnits="userSpaceOnUse"
       id="linearGradient4245"
       xlink:href="#linearGradient4284" /><linearGradient
       y2="66.018341"
       x2="173.94518"
       y1="396.6066"
       x1="447.80933"
       gradientTransform="matrix(0.09251715,0,0,0.09251715,761.17539,-0.69005595)"
       gradientUnits="userSpaceOnUse"
       id="linearGradient4247"
       xlink:href="#linearGradient4292" /><linearGradient
       xlink:href="#linearGradient1"
       id="linearGradient2"
       x1="65.512505"
       y1="119.42089"
       x2="129.27672"
       y2="119.42089"
       gradientUnits="userSpaceOnUse" /><rect
       x="272.34009"
       y="544.68018"
       width="51.533951"
       height="22.193455"
       id="rect2-7" /><rect
       x="272.34009"
       y="544.68018"
       width="190.33711"
       height="80.498306"
       id="rect2-8" /><rect
       x="515.21393"
       y="591.28583"
       width="82.189529"
       height="20.746872"
       id="rect1-2" /><linearGradient
       y2="300.73987"
       x2="236.61363"
       y1="-161.8512"
       x1="-122.20192"
       spreadMethod="pad"
       gradientTransform="matrix(0.08192422,0,0,0.07764193,223.12164,515.26127)"
       gradientUnits="userSpaceOnUse"
       id="linearGradient4245-2"
       xlink:href="#linearGradient4284" /><linearGradient
       y2="66.018341"
       x2="173.94518"
       y1="396.6066"
       x1="447.80933"
       gradientTransform="matrix(0.09251715,0,0,0.09251715,200.34291,492.03412)"
       gradientUnits="userSpaceOnUse"
       id="linearGradient4247-2"
       xlink:href="#linearGradient4292" /><rect
       x="272.34009"
       y="544.68018"
       width="51.533951"
       height="22.193455"
       id="rect2-7-8" /><rect
       x="272.34009"
       y="544.68018"
       width="561.35876"
       height="80.000717"
       id="rect2-4" /><linearGradient
       inkscape:collect="always"
       xlink:href="#linearGradient27"
       id="linearGradient28"
       x1="484.3562"
       y1="578.19971"
       x2="605.6347"
       y2="578.19971"
       gradientUnits="userSpaceOnUse" /><rect
       x="272.34009"
       y="544.68018"
       width="561.35876"
       height="80.000717"
       id="rect2-4-1" /><rect
       x="272.34009"
       y="544.68018"
       width="561.35876"
       height="80.000717"
       id="rect2-4-3" /><rect
       x="272.34009"
       y="544.68018"
       width="561.35876"
       height="80.000717"
       id="rect2-4-3-1" /><linearGradient
       inkscape:collect="always"
       xlink:href="#linearGradient66"
       id="linearGradient67"
       x1="554.15948"
       y1="521.67975"
       x2="554.15948"
       y2="634.71967"
       gradientUnits="userSpaceOnUse" /><linearGradient
       id="linearGradient4898"><stop
         id="stop4278"
         style="stop-color:#bab8db;stop-opacity:1"
         offset="0" /><stop
         id="stop4280"
         style="stop-color:#5955a9;stop-opacity:0.99159664"
         offset="1" /></linearGradient><linearGradient
       id="linearGradient3294"><stop
         offset="0"
         style="stop-color:#6376e6;stop-opacity:1"
         id="stop3296" /><stop
         offset="0.50094414"
         style="stop-color:#222989;stop-opacity:1"
         id="stop3302" /><stop
         offset="1"
         style="stop-color:#00003d;stop-opacity:1"
         id="stop3298" /></linearGradient><linearGradient
       id="linearGradient3284"><stop
         offset="0"
         style="stop-color:#000000;stop-opacity:1"
         id="stop3286" /><stop
         offset="0.84845906"
         style="stop-color:#000000;stop-opacity:0.49803922"
         id="stop3292" /><stop
         offset="1"
         style="stop-color:#000000;stop-opacity:0"
         id="stop3288" /></linearGradient><linearGradient
       id="linearGradient3274"><stop
         offset="0"
         style="stop-color:#000000;stop-opacity:1"
         id="stop3276" /><stop
         offset="1"
         style="stop-color:#000000;stop-opacity:0"
         id="stop3278" /></linearGradient><linearGradient
       id="linearGradient3242"><stop
         offset="0"
         style="stop-color:#282828;stop-opacity:1"
         id="stop3244" /><stop
         offset="0.39253417"
         style="stop-color:#808080;stop-opacity:1"
         id="stop3252" /><stop
         offset="1"
         style="stop-color:#d9d9d9;stop-opacity:1"
         id="stop3246" /></linearGradient><linearGradient
       id="linearGradient3202"><stop
         offset="0"
         style="stop-color:#2b2b2b;stop-opacity:1"
         id="stop3204" /><stop
         offset="0.5"
         style="stop-color:#828383;stop-opacity:1"
         id="stop3250" /><stop
         offset="1"
         style="stop-color:#dadbdb;stop-opacity:1"
         id="stop3206" /></linearGradient><linearGradient
       id="linearGradient4966"><stop
         offset="0"
         style="stop-color:#b6b3d8;stop-opacity:1"
         id="stop4968" /><stop
         offset="1"
         style="stop-color:#b6b3d8;stop-opacity:0"
         id="stop4970" /></linearGradient><linearGradient
       id="linearGradient4876"><stop
         offset="0"
         style="stop-color:#d3d2e8;stop-opacity:1"
         id="stop4878" /><stop
         offset="1"
         style="stop-color:#5955a9;stop-opacity:0.99159664"
         id="stop4880" /></linearGradient><radialGradient
       gradientTransform="matrix(0.6817439,0,0,0.5905355,-3.8523706,-28.935273)"
       gradientUnits="userSpaceOnUse"
       xlink:href="#linearGradient4898"
       id="radialGradient4892"
       fy="-108.96888"
       fx="20.951529"
       r="266.76535"
       cy="-108.96888"
       cx="20.951529" /><radialGradient
       gradientTransform="matrix(1,0,0,0.1854103,0,383.88493)"
       gradientUnits="userSpaceOnUse"
       xlink:href="#linearGradient3274"
       id="radialGradient4944"
       fy="471.26172"
       fx="233.8876"
       r="170.49393"
       cy="471.26172"
       cx="233.8876" /><radialGradient
       gradientTransform="matrix(1,0,0,0.9121621,0,32.654948)"
       gradientUnits="userSpaceOnUse"
       xlink:href="#linearGradient4966"
       id="radialGradient4972"
       fy="371.76376"
       fx="299.70135"
       r="76.696358"
       cy="371.76376"
       cx="299.70135" /><radialGradient
       gradientTransform="matrix(0.414705,0.3300575,-0.5059004,0.6356454,346.95314,49.479585)"
       gradientUnits="userSpaceOnUse"
       xlink:href="#linearGradient3202"
       id="radialGradient3210"
       fy="390.45248"
       fx="289.44067"
       r="17.67668"
       cy="390.45248"
       cx="289.44067" /><radialGradient
       gradientTransform="matrix(0.414705,0.3300575,-0.5059004,0.6356454,448.41009,-65.398074)"
       gradientUnits="userSpaceOnUse"
       xlink:href="#linearGradient3202"
       id="radialGradient3238"
       fy="382.14804"
       fx="283.50717"
       r="17.67668"
       cy="382.14804"
       cx="283.50717" /><radialGradient
       gradientTransform="matrix(-0.06556501,-0.05972176,1.6871024,-1.8521705,171.90774,540.51473)"
       gradientUnits="userSpaceOnUse"
       xlink:href="#linearGradient3242"
       id="radialGradient3248"
       fy="181.18982"
       fx="418.45551"
       r="63.068935"
       cy="181.18982"
       cx="418.45551" /><radialGradient
       gradientTransform="matrix(0.4055116,-0.03344012,0.1034174,4.3988695,177.23251,-1191.6649)"
       gradientUnits="userSpaceOnUse"
       xlink:href="#linearGradient3274"
       id="radialGradient3268"
       fy="357.33591"
       fx="354.51709"
       r="33.712105"
       cy="357.33591"
       cx="354.51709" /><radialGradient
       gradientTransform="matrix(-0.1339874,-0.1146812,0.3079048,-0.3597394,444.23592,395.03849)"
       gradientUnits="userSpaceOnUse"
       xlink:href="#linearGradient3274"
       id="radialGradient3280"
       fy="223.55537"
       fx="510.58469"
       r="132.28336"
       cy="223.55537"
       cx="510.58469" /><radialGradient
       gradientTransform="matrix(-1.2497569,1.3798305,-0.09628946,-0.07297448,674.3826,-70.590682)"
       gradientUnits="userSpaceOnUse"
       xlink:href="#linearGradient3284"
       id="radialGradient3290"
       fy="-158.17821"
       fx="284.4671"
       r="110.2972"
       cy="-158.17821"
       cx="284.4671" /><radialGradient
       gradientTransform="matrix(-0.1008165,-0.08087232,1.0745309,-1.3395252,13.843287,784.79288)"
       gradientUnits="userSpaceOnUse"
       xlink:href="#linearGradient3294"
       id="radialGradient3300"
       fy="356.62274"
       fx="425.51019"
       r="143.34167"
       cy="356.62274"
       cx="425.51019" /><filter
       height="1.1062305"
       y="-0.053115233"
       width="1.1073157"
       x="-0.053657864"
       id="filter4350"
       style="color-interpolation-filters:sRGB"><feGaussianBlur
         id="feGaussianBlur4352"
         stdDeviation="8.7848425" /></filter><linearGradient
       y2="300.73987"
       x2="236.61363"
       y1="-161.8512"
       x1="-122.20192"
       spreadMethod="pad"
       gradientTransform="matrix(0.87385837,0,0,0.82818057,246.00762,250.28138)"
       gradientUnits="userSpaceOnUse"
       id="linearGradient4245-5"
       xlink:href="#linearGradient4284" /><linearGradient
       y2="66.018341"
       x2="173.94518"
       y1="396.6066"
       x1="447.80933"
       gradientTransform="matrix(0.98684959,0,0,0.98684959,3.0344187,2.5250397)"
       gradientUnits="userSpaceOnUse"
       id="linearGradient4247-6"
       xlink:href="#linearGradient4292" /><rect
       x="272.34009"
       y="544.68018"
       width="561.35876"
       height="80.000717"
       id="rect2-4-3-1-4" /></defs><rect
     style="fill:#292337;fill-opacity:1;stroke-width:0.111776"
     id="rect3"
     width="271.99167"
     height="33.866665"
     x="0"
     y="0" /><g
     inkscape:label="Capa 1"
     inkscape:groupmode="layer"
     id="layer1"
     transform="translate(-4.4493806,-13.34814)" /><text
     xml:space="preserve"
     transform="matrix(0.16384172,0,0,0.16384172,34.82893,-65.864153)"
     id="text2-4-3-9"
     style="font-style:normal;font-variant:normal;font-weight:600;font-stretch:normal;font-size:52.2158px;font-family:'Fira Sans';-inkscape-font-specification:'Fira Sans Semi-Bold';text-align:center;white-space:pre;shape-inside:url(#rect2-4-3-1);display:inline;mix-blend-mode:normal;fill:#524d4d;fill-opacity:1;fill-rule:evenodd;stroke:none;stroke-width:7.20873;stroke-linejoin:miter;stroke-dasharray:none;paint-order:markers stroke fill"><tspan
       x="504.67025"
       y="591.89147"
       id="tspan13"><tspan
         style="font-weight:normal;font-family:Monospace;-inkscape-font-specification:Monospace"
         id="tspan2">G</tspan><tspan
         style="font-size:4.89524px"
         id="tspan7"> </tspan><tspan
         style="font-weight:normal;font-family:Monospace;-inkscape-font-specification:Monospace"
         id="tspan10">N</tspan><tspan
         style="font-size:4.89524px"
         id="tspan11"> </tspan><tspan
         style="font-weight:normal;font-family:Monospace;-inkscape-font-specification:Monospace"
         id="tspan12">U</tspan></tspan></text><text
     xml:space="preserve"
     transform="matrix(0.05076611,0,0,0.05076611,128.16935,-1.9440593)"
     id="text2-4-3-9-1"
     style="font-style:normal;font-variant:normal;font-weight:300;font-stretch:normal;font-size:52.2158px;font-family:'Fira Sans';-inkscape-font-specification:'Fira Sans Light';text-align:center;white-space:pre;shape-inside:url(#rect2-4-3-1-4);display:inline;mix-blend-mode:normal;fill:#8367db;fill-opacity:1;fill-rule:evenodd;stroke:none;stroke-width:7.20873;stroke-linejoin:miter;stroke-dasharray:none;paint-order:markers stroke fill"><tspan
       x="529.15528"
       y="593.01302"
       id="tspan14">🄯</tspan></text><rect
     style="fill:#534d4d;fill-opacity:1;stroke:none;stroke-width:2;stroke-linejoin:round;stroke-dasharray:none;stroke-opacity:1;paint-order:markers stroke fill"
     id="rect44"
     width="1.0882605"
     height="0.2176521"
     x="144.9563"
     y="75.307625" /><g
     id="g69"
     style="fill:#8367db;fill-opacity:1;stroke:none"
     transform="matrix(0.08011003,0,0,0.08011003,88.098097,-16.650782)"><path
       id="path2173"
       style="fill:#8367db;fill-opacity:1;fill-rule:evenodd;stroke:none;stroke-width:0.827113px;stroke-linecap:butt;stroke-linejoin:miter;stroke-opacity:1"
       d="m 700.96833,479.0406 c -17.95997,0.59418 -42.56025,19.76523 -55.74451,30.52401 -8.55659,6.98244 -43.51693,35.5289 -15.22081,39.47041 -18.34642,10.06863 -50.09481,50.80024 -35.0279,60.48747 10.52449,6.7667 47.37667,-15.86059 69.69879,-36.01818 -4.88241,8.47229 -8.59811,17.21254 -8.91085,19.66655 2.30699,0.57675 50.68198,-56.19953 25.26894,-3.58147 18.42646,-15.59318 36.93945,-43.64638 22.75207,-8.15804 -2.97514,7.44203 10.57188,9.09204 24.00889,-3.56531 -2.539,8.05915 3.73537,13.58943 21.6374,5.13876 2.54348,5.05467 11.58735,5.27265 26.67762,-6.64921 -2.36314,9.70533 8.37034,15.49952 28.22522,0.95796 -8.20822,3.80406 -33.93083,0.18307 6.56521,-23.73264 -21.72648,4.06257 -32.57484,14.5156 -34.71127,22.48389 -27.80078,14.37778 -18.62908,-10.9776 -9.85912,-18.11086 0.12606,-0.18319 -2.12856,-0.64335 -3.35046,-0.62357 -15.82863,0.25633 -27.28088,7.86937 -32.52718,15.34844 -6.13344,2.53622 -20.11364,8.54624 -11.3211,-11.37926 6.13704,-13.90767 -14.17291,-0.16071 -19.8394,5.15169 1.18497,-5.37943 5.43878,-14.93125 -1.44907,-12.28554 -6.88784,2.64571 -14.31495,8.02872 -27.02979,19.96056 7.30173,-11.76044 7.68113,-12.99262 9.88336,-18.70212 -0.0421,0.0108 -0.0854,0.0318 -0.12763,0.0436 0.0565,-0.10321 0.13198,-0.21465 0.18578,-0.31663 -0.2009,0.1582 -0.3817,0.2937 -0.58156,0.45072 -2.10074,0.72936 -4.37192,2.59954 -6.65891,5.15976 -80.1998,61.28903 -68.72414,19.35401 -53.61694,4.32457 10.56797,-12.87598 44.44411,-22.03325 53.42632,-40.25067 -46.48108,24.95631 -49.34516,3.5855 -10.61838,-21.26262 7.12069,-4.56016 54.18667,-26.16258 18.17064,4.15819 21.3039,-9.91737 39.35278,-25.24536 25.43533,-28.24946 -1.69581,-0.36605 -3.48277,-0.50249 -5.34069,-0.44102 z m 129.71132,74.66954 c -14.50905,0.0962 -38.27097,15.02231 -17.71669,12.6684 21.36341,-2.46639 21.61081,16.89625 -0.46203,16.87019 -3.08903,-0.003 -2.13401,-3.08552 -2.13401,-3.08552 l -9.00454,3.97887 c 8.52346,2.44693 12.35042,1.98491 19.08821,1.05974 11.88099,-1.6314 29.37054,-19.71421 5.2583,-20.8426 -26.49565,-1.23402 6.34389,-10.61192 6.34389,-10.61192 -0.44697,-0.0289 -0.9051,-0.0403 -1.37313,-0.0371 z m -76.45302,8.22913 c 0.22571,-0.002 0.3987,0.0259 0.51049,0.0824 10.34698,4.88407 -14.68636,27.53378 -18.87497,15.8153 -0.3066,-9.47033 14.97889,-15.87833 18.36448,-15.89769 z" /></g><g
     id="g89"
     transform="matrix(0.03864661,0,0,0.03864661,128.27415,1.3099865)"><rect
       style="display:none;fill:none"
       id="rect4772"
       y="0.20100001"
       x="0.171"
       height="512"
       width="512" /><g
       style="display:none"
       id="g4788"><g
         style="display:inline"
         id="g4790" /></g><g
       style="display:none"
       id="g4806"><g
         style="display:inline"
         id="g4808"><path
           style="display:none;fill:#050505"
           id="path4810"
           d="m 349.098,256.651 c -0.265,-0.254 37.637,27.605 39.421,25.012 6.362,-9.252 82.046,-93.137 84.784,-116.236 0.242,-2.003 -0.516,-4.096 -0.516,-4.096 0,0 -1.19,-0.144 -6.325,-4.314 -2.692,-2.192 -5.483,-4.581 -5.483,-4.581 -16.054,0.998 -57.885,41.559 -111.062,103.568" /></g></g><path
       style="opacity:0.405;fill:#211f46;fill-opacity:0.996078;stroke:#0a0b1b;stroke-width:8.53333;stroke-miterlimit:4;stroke-dasharray:none;stroke-opacity:1;filter:url(#filter4350)"
       id="path4233"
       d="m 491.66937,257.75916 c 0,131.79436 -105.76,238.63481 -236.22155,238.63481 -130.46155,0 -236.221539,-106.84045 -236.221539,-238.63481 0,-131.79437 105.759989,-238.634808 236.221539,-238.634808 130.46155,0 236.22155,106.840438 236.22155,238.634808 z"
       transform="matrix(0.98684957,0,0,0.98684957,3.0344041,2.5250397)" /><path
       d="m 488.23812,256.89456 c 0,130.06121 -104.3692,235.49665 -233.1151,235.49665 -128.7459,0 -233.115201,-105.43544 -233.115201,-235.49665 0,-130.06123 104.369301,-235.49666 233.115201,-235.49666 128.7459,0 233.1151,105.43543 233.1151,235.49666 z"
       id="path4235"
       style="opacity:1;fill:url(#linearGradient4245-5);fill-opacity:1;stroke:url(#linearGradient4247-6);stroke-width:13.3382;stroke-miterlimit:4;stroke-dasharray:none;stroke-opacity:1" /><path
       d="m 175.0003,422.31057 c 0,0 19.7385,1.39634 45.1312,-0.84159 10.2834,-0.9063 49.3267,-4.74128 78.5169,-11.14289 0,0 35.5899,-7.61669 54.6301,-14.63335 19.9225,-7.34185 30.7636,-13.57304 35.6433,-22.40243 -0.2128,-1.80907 1.5024,-8.22438 -7.685,-12.07788 -23.4887,-9.85199 -50.73,-8.06998 -104.6338,-9.21285 -59.7772,-2.05391 -79.6627,-12.05971 -90.2556,-20.11838 -10.1579,-8.17519 -5.05,-30.79254 38.4742,-50.71499 21.9244,-10.60898 107.8705,-30.18698 107.8705,-30.18698 -28.9451,-14.30725 -82.9186,-39.45893 -94.0134,-44.89023 -9.7308,-4.76348 -25.303,-11.93595 -28.6785,-20.61368 -3.8271,-8.33089 9.0383,-15.50726 16.2248,-17.56236 23.1448,-6.67602 55.8182,-10.82538 85.5548,-11.29122 14.9472,-0.23417 17.3734,-1.19586 17.3734,-1.19586 20.6243,-3.42116 34.2014,-17.53175 28.5446,-39.87876 -5.0783,-22.81046 -31.8617,-36.21365 -57.3138,-31.57361 -23.9682,4.36956 -81.7378,21.15007 -81.7378,21.15007 71.4075,-0.61803 83.3592,0.57378 88.697,8.03676 3.1523,4.40742 -1.4324,10.45068 -20.4765,13.56099 -20.733,3.38616 -63.8312,7.46399 -63.8312,7.46399 -41.3449,2.4554 -70.4682,2.61974 -79.203,21.11314 -5.7065,12.08196 6.0854,22.7633 11.2538,29.4493 21.8407,24.28905 53.3882,37.38879 73.6948,47.03553 7.6405,3.62963 30.0586,10.48407 30.0586,10.48407 -65.8782,-3.62335 -113.4003,16.6055 -141.2764,39.89622 -31.5288,29.16261 -17.581403,63.92354 47.0124,85.3268 38.1517,12.6416 57.0725,18.58695 113.9815,13.46232 33.52,-1.80673 38.8041,-0.73155 39.1383,2.01892 0.4705,3.87242 -37.2311,13.49165 -47.524,16.4606 -26.1853,7.55306 -94.8276,22.80438 -95.1712,22.87835 z"
       id="path4237"
       style="fill:#ffffff;fill-opacity:1;fill-rule:evenodd;stroke:#000000;stroke-width:0;stroke-linecap:butt;stroke-linejoin:miter;stroke-miterlimit:4;stroke-dasharray:none;stroke-opacity:1" /></g></svg>
