<?xml version="1.0" encoding="UTF-8" standalone="no"?>
<!-- GNU Emacs Banner Copyright (C) 2025 Elijah Gabe B. P.

This file is free software: you can redistribute it and/or modify
it under the terms of the GNU General Public License as published by
the Free Software Foundation, either version 3 of the License, or
(at your option) any later version.

This file is distributed in the hope that it will be useful,
but WITHOUT ANY WARRANTY; without even the implied warranty of
MERCHANTABILITY or FITNESS FOR A PARTICULAR PURPOSE.  See the
GNU General Public License for more details.

You should have received a copy of the GNU General Public License
along with this file.  If not, see <https://www.gnu.org/licenses>
-->

<!-- Created with Inkscape (http://www.inkscape.org/)
===
The fira sans font is required to properly display the text.
You can get it here: https://fonts.google.com/specimen/Fira+Sans
===
-->

<svg
   width="1027.9999"
   height="127.99999"
   viewBox="0 0 271.99164 33.866665"
   version="1.1"
   id="svg1"
   xml:space="preserve"
   inkscape:version="1.4 (e7c3feb100, 2024-10-09)"
   sodipodi:docname="banner2.svg"
   inkscape:export-filename="exported banners/banner3.png"
   inkscape:export-xdpi="96"
   inkscape:export-ydpi="96"
   xmlns:inkscape="http://www.inkscape.org/namespaces/inkscape"
   xmlns:sodipodi="http://sodipodi.sourceforge.net/DTD/sodipodi-0.dtd"
   xmlns:xlink="http://www.w3.org/1999/xlink"
   xmlns="http://www.w3.org/2000/svg"
   xmlns:svg="http://www.w3.org/2000/svg"
   xmlns:rdf="http://www.w3.org/1999/02/22-rdf-syntax-ns#"
   xmlns:cc="http://creativecommons.org/ns#"><sodipodi:namedview
     id="namedview1"
     pagecolor="#505050"
     bordercolor="#ffffff"
     borderopacity="1"
     inkscape:showpageshadow="0"
     inkscape:pageopacity="0"
     inkscape:pagecheckerboard="1"
     inkscape:deskcolor="#505050"
     inkscape:document-units="mm"
     inkscape:zoom="1"
     inkscape:cx="556"
     inkscape:cy="21"
     inkscape:window-width="1920"
     inkscape:window-height="919"
     inkscape:window-x="0"
     inkscape:window-y="0"
     inkscape:window-maximized="1"
     inkscape:current-layer="svg1" /><defs
     id="defs1"><linearGradient
       id="linearGradient66"
       inkscape:collect="always"><stop
         style="stop-color:#7762a4;stop-opacity:1;"
         offset="0"
         id="stop66" /><stop
         style="stop-color:#4b3bcb;stop-opacity:1;"
         offset="1"
         id="stop67" /></linearGradient><clipPath
       clipPathUnits="userSpaceOnUse"
       id="clipPath57"><path
         id="path57"
         style="stroke-width:0.1;stroke-linecap:square;paint-order:markers fill stroke;stop-color:#000000"
         d="m -880.82767,-187.29769 h 1640.84 v 73.28155 h -1640.84 z" /></clipPath><clipPath
       clipPathUnits="userSpaceOnUse"
       id="clipPath55"><path
         id="path55"
         style="stroke-width:0.1;stroke-linecap:square;paint-order:markers fill stroke;stop-color:#000000"
         d="m -880.82767,-187.29769 h 1640.84 v 73.28155 h -1640.84 z" /></clipPath><clipPath
       clipPathUnits="userSpaceOnUse"
       id="clipPath52"><path
         id="path52"
         style="stroke-width:0.1;stroke-linecap:square;paint-order:markers fill stroke;stop-color:#000000"
         d="m -880.82767,-187.29769 h 1640.84 v 73.28155 h -1640.84 z" /></clipPath><linearGradient
       id="linearGradient27"
       inkscape:collect="always"><stop
         style="stop-color:#8381c5;stop-opacity:1;"
         offset="0"
         id="stop27" /><stop
         style="stop-color:#7e55b3;stop-opacity:0.99607843;"
         offset="0.5"
         id="stop29" /></linearGradient><rect
       x="1773.5857"
       y="293.72913"
       width="58.297382"
       height="85.203865"
       id="rect21" /><rect
       x="1222.0028"
       y="594.18488"
       width="2.2422071"
       height="13.453242"
       id="rect20" /><linearGradient
       id="swatch14"
       inkscape:swatch="solid"><stop
         style="stop-color:#683fbc;stop-opacity:1;"
         offset="0"
         id="stop14" /></linearGradient><rect
       x="272.34009"
       y="544.68018"
       width="543.03058"
       height="70.225677"
       id="rect2" /><linearGradient
       id="linearGradient1"><stop
         style="stop-color:#8381c5;stop-opacity:1;"
         offset="0"
         id="stop2" /><stop
         style="stop-color:#943fc1;stop-opacity:0.99215686;"
         offset="1"
         id="stop1" /></linearGradient><rect
       x="515.21393"
       y="591.28583"
       width="82.189529"
       height="20.746872"
       id="rect1" /><linearGradient
       id="swatch7"><stop
         style="stop-color:#000000;stop-opacity:1;"
         offset="0"
         id="stop7" /></linearGradient><linearGradient
       id="linearGradient4292"><stop
         id="stop4294"
         offset="0"
         style="stop-color:#411f5d;stop-opacity:1" /><stop
         id="stop4296"
         offset="1"
         style="stop-color:#5b2a85;stop-opacity:1" /></linearGradient><linearGradient
       id="linearGradient4284"><stop
         offset="0"
         style="stop-color:#8381c5;stop-opacity:1"
         id="stop4286" /><stop
         id="stop4290"
         style="stop-color:#7e55b3;stop-opacity:0.99607843"
         offset="0.56639391" /><stop
         offset="1"
         style="stop-color:#a52ecb;stop-opacity:0.99215686"
         id="stop4288" /></linearGradient><linearGradient
       y2="300.73987"
       x2="236.61363"
       y1="-161.8512"
       x1="-122.20192"
       spreadMethod="pad"
       gradientTransform="matrix(0.08192422,0,0,0.07764193,783.95412,22.537094)"
       gradientUnits="userSpaceOnUse"
       id="linearGradient4245"
       xlink:href="#linearGradient4284" /><linearGradient
       y2="66.018341"
       x2="173.94518"
       y1="396.6066"
       x1="447.80933"
       gradientTransform="matrix(0.09251715,0,0,0.09251715,761.17539,-0.69005595)"
       gradientUnits="userSpaceOnUse"
       id="linearGradient4247"
       xlink:href="#linearGradient4292" /><linearGradient
       xlink:href="#linearGradient1"
       id="linearGradient2"
       x1="65.512505"
       y1="119.42089"
       x2="129.27672"
       y2="119.42089"
       gradientUnits="userSpaceOnUse" /><rect
       x="272.34009"
       y="544.68018"
       width="51.533951"
       height="22.193455"
       id="rect2-7" /><rect
       x="272.34009"
       y="544.68018"
       width="190.33711"
       height="80.498306"
       id="rect2-8" /><rect
       x="515.21393"
       y="591.28583"
       width="82.189529"
       height="20.746872"
       id="rect1-2" /><linearGradient
       y2="300.73987"
       x2="236.61363"
       y1="-161.8512"
       x1="-122.20192"
       spreadMethod="pad"
       gradientTransform="matrix(0.08192422,0,0,0.07764193,223.12164,515.26127)"
       gradientUnits="userSpaceOnUse"
       id="linearGradient4245-2"
       xlink:href="#linearGradient4284" /><linearGradient
       y2="66.018341"
       x2="173.94518"
       y1="396.6066"
       x1="447.80933"
       gradientTransform="matrix(0.09251715,0,0,0.09251715,200.34291,492.03412)"
       gradientUnits="userSpaceOnUse"
       id="linearGradient4247-2"
       xlink:href="#linearGradient4292" /><rect
       x="272.34009"
       y="544.68018"
       width="51.533951"
       height="22.193455"
       id="rect2-7-8" /><rect
       x="272.34009"
       y="544.68018"
       width="561.35876"
       height="80.000717"
       id="rect2-4" /><linearGradient
       inkscape:collect="always"
       xlink:href="#linearGradient27"
       id="linearGradient28"
       x1="484.3562"
       y1="578.19971"
       x2="605.6347"
       y2="578.19971"
       gradientUnits="userSpaceOnUse" /><rect
       x="272.34009"
       y="544.68018"
       width="561.35876"
       height="80.000717"
       id="rect2-4-1" /><rect
       x="272.34009"
       y="544.68018"
       width="561.35876"
       height="80.000717"
       id="rect2-4-3" /><rect
       x="272.34009"
       y="544.68018"
       width="561.35876"
       height="80.000717"
       id="rect2-4-3-1" /><linearGradient
       inkscape:collect="always"
       xlink:href="#linearGradient66"
       id="linearGradient67"
       x1="554.15948"
       y1="521.67975"
       x2="554.15948"
       y2="634.71967"
       gradientUnits="userSpaceOnUse" /></defs><rect
     style="fill:#342f1d;fill-opacity:1;stroke-width:0.264583"
     id="rect3"
     height="33.866665"
     x="0"
     y="0"
     width="271.99164" /><g
     inkscape:label="Capa 1"
     inkscape:groupmode="layer"
     id="layer1"
     transform="translate(-4.4493764,-13.34814)"><g
       id="g1"
       transform="matrix(0.11701259,0,0,0.11701259,137.73523,19.028724)"
       style="fill:#ff5555;fill-opacity:1"><g
         id="g2"
         transform="matrix(1.06,0,0,1.06,-290.02321,-14.198385)"
         style="fill:#ff5555;fill-opacity:1"><g
           id="g2233"
           style="fill:#ff5555;fill-opacity:1;stroke:none"><path
             sodipodi:nodetypes="cccsz"
             id="path9706"
             d="m 176.57988,37.972907 c -1.59278,1.03506 -7.7054,13.980618 -7.80158,15.560314 11.86356,19.580712 33.80125,-13.454437 37.77551,-28.552457 0,0 -10.38257,18.198239 -19.78064,18.546175 -11.01641,0.407851 -8.59763,-6.590966 -10.19329,-5.554032 z"
             style="fill:#ff5555;fill-opacity:1;fill-rule:evenodd;stroke:none;stroke-width:0.125;stroke-linecap:butt;stroke-linejoin:miter;stroke-miterlimit:4;stroke-dasharray:none;stroke-opacity:1" /><path
             sodipodi:nodetypes="ccsscsscsscsssc"
             id="path7673"
             d="m 22.47173,15.758997 -6.6617,16.726759 c 0,0 4.08049,9.732348 10.68066,10.352439 15.12668,1.421164 31.96176,-27.218658 36.7034,-27.079198 4.74165,0.13946 14.35944,7.663301 19.47161,18.163659 6.72965,-13.163585 14.92072,-19.011431 28.50269,-9.255641 7.90203,5.675951 24.42095,28.128211 34.3072,29.234334 10.70462,1.197688 19.90239,-8.988532 24.33579,-27.61311 -6.13625,7.949229 -8.63458,11.518467 -14.78278,11.923843 -6.34543,0.41838 -5.7876,1.673522 -27.96176,-21.337403 C 104.89268,-6.1362469 94.43317,4.8811053 87.87854,14.643316 86.41421,13.039524 78.99699,1.01863 70.05858,1.1156811 63.72511,1.1844483 53.17415,16.174161 46.86414,21.616488 40.30897,27.270272 36.37856,28.267647 33.99471,28.294944 30.30074,28.339067 25.84923,26.450798 22.47173,15.758997 Z"
             style="fill:#ff5555;fill-opacity:1;fill-rule:evenodd;stroke:none;stroke-width:0.125;stroke-linecap:butt;stroke-linejoin:round;stroke-miterlimit:4;stroke-dasharray:none;stroke-opacity:1" /><path
             sodipodi:nodetypes="csscsssc"
             id="path8693"
             d="M 76.60517,33.616604 C 59.9071,53.934058 59.23819,54.418087 50.46092,68.860929 41.68365,83.303771 39.35397,92.905012 43.4733,96.486252 c 4.15059,3.608418 11.54583,3.807568 20.60541,-2.888666 12.60731,-9.661502 29.43545,-23.449417 34.05511,-35.18771 1.20073,-3.051 -20.66132,17.644277 -29.43456,22.776357 -5.26363,3.079071 -12.33922,3.888893 -16.14003,0.211492 -7.75632,-7.504489 26.9642,-44.622975 24.04594,-47.781121 z"
             style="fill:#ff5555;fill-opacity:1;fill-rule:evenodd;stroke:none;stroke-width:0.125;stroke-linecap:butt;stroke-linejoin:miter;stroke-miterlimit:4;stroke-dasharray:none;stroke-opacity:1" /><path
             sodipodi:nodetypes="cccsz"
             id="path9704"
             d="m 101.40617,64.709511 c -0.0349,-1.638657 8.43734,-14.155205 9.90167,-14.643316 21.24567,14.288092 10.1806,51.042425 3.20759,54.250005 0,0 1.22027,-15.759001 -1.95245,-25.660673 -3.17272,-9.901673 -11.12188,-12.304396 -11.15681,-13.946016 z"
             style="fill:#ff5555;fill-opacity:1;fill-rule:evenodd;stroke:none;stroke-width:0.125;stroke-linecap:butt;stroke-linejoin:miter;stroke-miterlimit:4;stroke-dasharray:none;stroke-opacity:1" /><path
             sodipodi:nodetypes="cscssscc"
             id="path2171"
             d="m 212.01995,32.790058 c -2.00565,-8.533948 7.10929,-31.6046438 18.73551,-31.6046438 29.02801,0 14.93144,46.2881448 9.2741,63.3846388 -13.80655,35.771527 -22.55479,89.254847 -23.15038,93.856677 -0.72704,5.61747 -9.40015,20.66814 -5.02057,-4.1838 4.37958,-24.85194 12.24829,-53.85299 21.70213,-87.693106 4.95832,-17.748393 10.9888,-49.402204 -5.77394,-49.449033 -8.55135,-0.109333 -8.06633,5.92502 -15.76685,15.689267 z"
             style="fill:#ff5555;fill-opacity:1;fill-rule:evenodd;stroke:none;stroke-width:0.125;stroke-linecap:butt;stroke-linejoin:miter;stroke-miterlimit:4;stroke-dasharray:none;stroke-opacity:1" /></g><path
           style="fill:#ff5555;fill-opacity:1;fill-rule:evenodd;stroke:none;stroke-width:0.125;stroke-linecap:butt;stroke-linejoin:miter;stroke-miterlimit:4;stroke-dasharray:none;stroke-opacity:1"
           d="m 127.36915,186.62713 c -4.98948,-2.49474 24.07929,-70.68339 28.10477,-47.7288 1.80468,10.29084 18.44067,-18.53929 18.44067,-18.53929 0,0 13.06625,-23.765781 13.70724,-21.694903 3.04495,9.837533 -35.43073,73.542653 -38.16332,57.491503 -2.76174,-16.22237 -21.49768,30.76733 -22.08936,30.47149 z"
           id="path3158"
           sodipodi:nodetypes="cscsss" /><path
           style="fill:#ff5555;fill-opacity:1;fill-rule:evenodd;stroke:none;stroke-width:0.125;stroke-linecap:butt;stroke-linejoin:miter;stroke-miterlimit:4;stroke-dasharray:none;stroke-opacity:1"
           d="m 59.52326,215.22497 c 0,0 -0.24653,-14.59477 24.45608,-45.55932 19.91181,-24.95932 42.99536,-60.94296 42.99536,-60.94296 0,0 -3.78468,18.9811 -20.60385,40.65158 -19.63196,25.29458 -46.84759,65.8507 -46.84759,65.8507 z"
           id="path4129"
           sodipodi:nodetypes="cscsc" /></g></g></g><text
     xml:space="preserve"
     transform="matrix(0.18715099,0,0,0.18715099,35.403947,-91.690351)"
     id="text2-4-3-9"
     style="font-style:italic;font-variant:normal;font-weight:500;font-stretch:normal;font-size:60px;font-family:'Fira Sans';-inkscape-font-specification:'Fira Sans Medium Italic';text-align:center;white-space:pre;shape-inside:url(#rect2-4-3-1);display:inline;mix-blend-mode:normal;fill:#524d4d;fill-opacity:1;fill-rule:evenodd;stroke:none;stroke-width:7.20873;stroke-linejoin:miter;stroke-dasharray:none;paint-order:markers stroke fill"><tspan
       x="506.4375"
       y="599.66572"
       id="tspan4"><tspan
         style="font-weight:normal;font-family:'FantasqueSansM Nerd Font';-inkscape-font-specification:'FantasqueSansM Nerd Font Italic'"
         id="tspan2">GNU</tspan></tspan></text><rect
     style="fill:#534d4d;fill-opacity:1;stroke:none;stroke-width:2;stroke-linejoin:round;stroke-dasharray:none;stroke-opacity:1;paint-order:markers stroke fill"
     id="rect44"
     width="1.0882605"
     height="0.2176521"
     x="144.9563"
     y="75.307625" /><g
     id="g69"
     style="fill:#8367db;stroke:none;fill-opacity:1"
     transform="matrix(0.09471974,0,0,0.09471974,88.403251,-20.567249)"><path
       id="path2173"
       style="fill:#8367db;fill-rule:evenodd;stroke:none;stroke-width:1px;stroke-linecap:butt;stroke-linejoin:miter;stroke-opacity:1;fill-opacity:1"
       d="m 766.24979,296.32862 c -21.71404,0.71839 -51.45639,23.89666 -67.39649,36.90429 -10.34513,8.44195 -52.61306,42.95533 -18.40234,47.72071 -22.18128,12.17323 -60.56588,61.41875 -42.34961,73.13086 12.72438,8.18111 57.27958,-19.17585 84.26758,-43.54688 -5.90296,10.24321 -10.39533,20.81039 -10.77344,23.77735 2.7892,0.6973 61.27577,-67.94663 30.55078,-4.33008 22.27804,-18.85255 44.66071,-52.76956 27.50781,-9.86328 -3.59702,8.9976 12.78167,10.9925 29.02735,-4.31055 -3.06972,9.74371 4.51615,16.42996 26.16016,6.21289 3.07513,6.11122 14.00939,6.37476 32.2539,-8.03906 -2.8571,11.73398 10.11995,18.7393 34.125,1.1582 -9.92395,4.5992 -41.02322,0.22133 7.9375,-28.69336 -26.26786,4.91175 -39.38379,17.54973 -41.96679,27.18359 -33.61184,17.38309 -22.52302,-13.27219 -11.91993,-21.89648 0.15241,-0.22148 -2.57348,-0.77783 -4.05078,-0.75391 -19.13721,0.3099 -32.98327,9.51426 -39.32617,18.55664 -7.41548,3.06636 -24.3179,10.33262 -13.6875,-13.75781 7.41984,-16.81471 -17.1354,-0.1943 -23.98633,6.22852 1.43266,-6.50386 6.57563,-18.05225 -1.75195,-14.85352 -8.32758,3.19873 -17.30714,9.70692 -32.67969,24.13281 8.82797,-14.21866 9.28667,-15.70839 11.94922,-22.61132 -0.0509,0.0131 -0.10325,0.0384 -0.1543,0.0527 0.0683,-0.12479 0.15956,-0.25952 0.22461,-0.38281 -0.24289,0.19126 -0.46149,0.35508 -0.70312,0.54492 -2.53985,0.88182 -5.28576,3.14291 -8.05079,6.23828 -96.96355,74.09997 -83.0892,23.39948 -64.82421,5.22852 12.77693,-15.56738 53.73403,-26.63875 64.59375,-48.66407 -56.19679,30.1728 -59.65953,4.33497 -12.83789,-25.70703 8.60909,-5.51335 65.51303,-31.63121 21.96875,5.02735 25.75695,-11.99034 47.5785,-30.52226 30.75195,-34.1543 -2.05027,-0.44256 -4.21075,-0.60752 -6.45703,-0.5332 z m 156.82422,90.27734 c -17.5418,0.11636 -46.27055,18.16234 -21.41992,15.31641 25.8289,-2.98193 26.12801,20.42799 -0.5586,20.39648 -3.73472,-0.004 -2.58008,-3.73047 -2.58008,-3.73047 l -10.88671,4.81055 c 10.30508,2.9584 14.93196,2.39981 23.07812,1.28125 14.36441,-1.9724 35.50972,-23.83497 6.35742,-25.19922 -32.0339,-1.49196 7.66992,-12.83008 7.66992,-12.83008 -0.5404,-0.0349 -1.09429,-0.0487 -1.66015,-0.0449 z m -92.4336,9.94922 c 0.27289,-0.002 0.48204,0.0313 0.61719,0.0996 12.50976,5.90496 -17.75617,33.28903 -22.82031,19.12109 -0.37069,-11.44986 18.10985,-19.1973 22.20312,-19.2207 z" /></g><metadata
     id="metadata1"><rdf:RDF><cc:Work
         rdf:about=""><cc:license
           rdf:resource="https://www.gnu.org/licenses/gpl-3.0.html#license-text" /></cc:Work></rdf:RDF></metadata></svg>
